<svg width="32" height="32" viewBox="0 0 32 32" fill="none" xmlns="http://www.w3.org/2000/svg">
<circle cx="16" cy="16" r="16" fill="#EDF5FF"/>
<g clip-path="url(#clip0_478_13975)">
<mask id="mask0_478_13975" style="mask-type:luminance" maskUnits="userSpaceOnUse" x="7" y="9" width="18" height="15">
<path d="M24.8899 9H7V23.9639H24.8899V9Z" fill="white"/>
</mask>
<g mask="url(#mask0_478_13975)">
<path d="M24.5398 23.8947H7.34223C7.26359 23.8947 7.18817 23.8634 7.13256 23.8079C7.07695 23.7523 7.04572 23.6768 7.04572 23.5983V12.9238C7.04572 12.8452 7.07695 12.7698 7.13256 12.7142C7.18817 12.6586 7.26359 12.6273 7.34223 12.6273H24.5398C24.6184 12.6273 24.694 12.6586 24.7496 12.7142C24.8052 12.7698 24.8364 12.8452 24.8364 12.9238V23.5983C24.8364 23.6768 24.8052 23.7523 24.7496 23.8079C24.694 23.8634 24.6184 23.8947 24.5398 23.8947ZM7.63874 23.3017H24.2433V13.2203H7.63874V23.3017Z" fill="#1F7BF4"/>
<path d="M11.79 18.8541C11.3795 18.8541 10.9782 18.7324 10.6369 18.5043C10.2955 18.2762 10.0295 17.9521 9.87241 17.5728C9.71531 17.1936 9.67422 16.7762 9.7543 16.3736C9.83439 15.971 10.0321 15.6011 10.3223 15.3109C10.6126 15.0206 10.9825 14.8229 11.3851 14.7428C11.7877 14.6627 12.205 14.7038 12.5843 14.8609C12.9635 15.018 13.2877 15.2841 13.5158 15.6254C13.7438 15.9667 13.8656 16.368 13.8656 16.7785C13.8649 17.3288 13.6461 17.8564 13.2569 18.2455C12.8678 18.6346 12.3403 18.8535 11.79 18.8541ZM11.79 15.296C11.4968 15.296 11.2101 15.3829 10.9663 15.5458C10.7225 15.7087 10.5325 15.9403 10.4203 16.2112C10.3081 16.4821 10.2787 16.7802 10.3359 17.0678C10.3931 17.3553 10.5343 17.6195 10.7417 17.8268C10.949 18.0342 11.2132 18.1754 11.5008 18.2326C11.7884 18.2898 12.0864 18.2604 12.3573 18.1482C12.6282 18.036 12.8598 17.846 13.0227 17.6022C13.1856 17.3584 13.2725 17.0717 13.2725 16.7785C13.2721 16.3855 13.1157 16.0086 12.8378 15.7307C12.5599 15.4528 12.183 15.2964 11.79 15.296Z" fill="#5B7DDE"/>
<path d="M14.755 21.8192C14.6764 21.8192 14.601 21.7879 14.5454 21.7323C14.4898 21.6767 14.4585 21.6013 14.4585 21.5227V20.6331C14.4585 20.191 13.5417 19.7436 11.7899 19.7436C10.0381 19.7436 9.12134 20.191 9.12134 20.6331V21.5227C9.12134 21.6013 9.09009 21.6767 9.03449 21.7323C8.97888 21.7879 8.90347 21.8192 8.82482 21.8192C8.74619 21.8192 8.67077 21.7879 8.61516 21.7323C8.55956 21.6767 8.52832 21.6013 8.52832 21.5227V20.6331C8.52832 19.7047 9.74757 19.1506 11.7899 19.1506C13.8323 19.1506 15.0515 19.7047 15.0515 20.6331V21.5227C15.0515 21.6013 15.0203 21.6767 14.9647 21.7323C14.9091 21.7879 14.8337 21.8192 14.755 21.8192Z" fill="#5B7DDE"/>
<path d="M20.9818 15.889H16.5342C16.4555 15.889 16.3801 15.8577 16.3245 15.8021C16.2689 15.7465 16.2377 15.6711 16.2377 15.5925C16.2377 15.5138 16.2689 15.4384 16.3245 15.3828C16.3801 15.3272 16.4555 15.296 16.5342 15.296H20.9818C21.0605 15.296 21.1359 15.3272 21.1915 15.3828C21.2471 15.4384 21.2784 15.5138 21.2784 15.5925C21.2784 15.6711 21.2471 15.7465 21.1915 15.8021C21.1359 15.8577 21.0605 15.889 20.9818 15.889Z" fill="#1F7BF4"/>
<path d="M23.0574 17.668H16.5342C16.4555 17.668 16.3801 17.6368 16.3245 17.5812C16.2689 17.5256 16.2377 17.4502 16.2377 17.3715C16.2377 17.2929 16.2689 17.2175 16.3245 17.1618C16.3801 17.1063 16.4555 17.075 16.5342 17.075H23.0574C23.136 17.075 23.2114 17.1063 23.267 17.1618C23.3226 17.2175 23.3539 17.2929 23.3539 17.3715C23.3539 17.4502 23.3226 17.5256 23.267 17.5812C23.2114 17.6368 23.136 17.668 23.0574 17.668Z" fill="#1F7BF4"/>
<path d="M23.0574 19.4471H16.5342C16.4555 19.4471 16.3801 19.4158 16.3245 19.3602C16.2689 19.3046 16.2377 19.2292 16.2377 19.1506C16.2377 19.0719 16.2689 18.9965 16.3245 18.9409C16.3801 18.8853 16.4555 18.8541 16.5342 18.8541H23.0574C23.136 18.8541 23.2114 18.8853 23.267 18.9409C23.3226 18.9965 23.3539 19.0719 23.3539 19.1506C23.3539 19.2292 23.3226 19.3046 23.267 19.3602C23.2114 19.4158 23.136 19.4471 23.0574 19.4471Z" fill="#1F7BF4"/>
<path d="M23.0574 21.2261H16.5342C16.4555 21.2261 16.3801 21.1949 16.3245 21.1393C16.2689 21.0837 16.2377 21.0083 16.2377 20.9296C16.2377 20.851 16.2689 20.7756 16.3245 20.72C16.3801 20.6644 16.4555 20.6331 16.5342 20.6331H23.0574C23.136 20.6331 23.2114 20.6644 23.267 20.72C23.3226 20.7756 23.3539 20.851 23.3539 20.9296C23.3539 21.0083 23.3226 21.0837 23.267 21.1393C23.2114 21.1949 23.136 21.2261 23.0574 21.2261Z" fill="#1F7BF4"/>
<path d="M24.2433 12.3308C24.1647 12.3308 24.0893 12.2996 24.0335 12.244C23.9779 12.1884 23.9467 12.1129 23.9467 12.0343V11.4413H7.93518V12.0343C7.93518 12.1129 7.90394 12.1884 7.84834 12.244C7.79273 12.2996 7.71731 12.3308 7.63867 12.3308C7.56003 12.3308 7.48461 12.2996 7.42901 12.244C7.3734 12.1884 7.34216 12.1129 7.34216 12.0343V11.1448C7.34216 11.0661 7.3734 10.9907 7.42901 10.9351C7.48461 10.8795 7.56003 10.8483 7.63867 10.8483H24.2433C24.3218 10.8483 24.3974 10.8795 24.453 10.9351C24.5086 10.9907 24.5398 11.0661 24.5398 11.1448V12.0343C24.5398 12.1129 24.5086 12.1884 24.453 12.244C24.3974 12.2996 24.3218 12.3308 24.2433 12.3308Z" fill="#1F7BF4"/>
<path d="M23.9467 10.5518C23.8681 10.5518 23.7927 10.5205 23.737 10.4649C23.6814 10.4093 23.6501 10.3339 23.6501 10.2553V9.66224H8.23163V10.2553C8.23163 10.3339 8.20039 10.4093 8.14479 10.4649C8.08918 10.5205 8.01376 10.5518 7.93512 10.5518C7.85648 10.5518 7.78106 10.5205 7.72546 10.4649C7.66985 10.4093 7.63861 10.3339 7.63861 10.2553V9.36573C7.63861 9.28709 7.66985 9.21167 7.72546 9.15606C7.78106 9.10045 7.85648 9.06921 7.93512 9.06921H23.9467C24.0253 9.06921 24.1008 9.10045 24.1564 9.15606C24.212 9.21167 24.2432 9.28709 24.2432 9.36573V10.2553C24.2432 10.3339 24.212 10.4093 24.1564 10.4649C24.1008 10.5205 24.0253 10.5518 23.9467 10.5518Z" fill="#1F7BF4"/>
</g>
</g>
<defs>
<clipPath id="clip0_478_13975">
<rect width="17.8899" height="15" fill="white" transform="translate(7 9)"/>
</clipPath>
</defs>
</svg>
