<svg width="32" height="32" viewBox="0 0 32 32" fill="none" xmlns="http://www.w3.org/2000/svg">
<circle cx="16" cy="16" r="16" fill="white"/>
<g clip-path="url(#clip0_478_13996)">
<mask id="mask0_478_13996" style="mask-type:luminance" maskUnits="userSpaceOnUse" x="6" y="6" width="20" height="20">
<path d="M26 6H6V26H26V6Z" fill="white"/>
</mask>
<g mask="url(#mask0_478_13996)">
<path d="M25 10H24.6666V9C24.6666 8.44772 24.2189 7.99998 23.6666 7.99998H22V7.00001C22 6.44773 21.5523 6 21 6H19.6667C19.1144 6 18.6666 6.44773 18.6666 7.00001V8.00002H17.6666C17.3365 8.00015 17.0115 8.082 16.7207 8.23829C16.4299 8.39457 16.1823 8.62042 16 8.89568C15.8177 8.62043 15.5701 8.39458 15.2793 8.23829C14.9885 8.08202 14.6635 8.00015 14.3333 8.00002H8.33332C7.78105 8.00002 7.33332 8.44775 7.33332 9.00003V10H7.00001C6.44773 10 6 10.4477 6 11V24C6 24.5523 6.44773 25 7.00001 25H14C14 25.5523 14.4477 26 15 26H17C17.5523 26 18 25.5523 18 25H25C25.5523 25 26 24.5523 26 24V11C26 10.4477 25.5523 10 25 10ZM7.99998 21.9386C8.10674 21.9782 8.21951 21.9989 8.33332 22H14.3333C14.9395 22.0023 15.4678 22.4131 15.6193 23H8.33332C8.14923 23 7.99998 22.8508 7.99998 22.6666V21.9386ZM21.3333 9.33334H19.3333V8.33332H21.3333V9.33334ZM20 10V16.6667H19.336C19.336 16.6597 19.3333 16.653 19.3333 16.646V10H20ZM21.092 17.3333L20.3333 18.6613L19.5747 17.3333H21.092ZM21.3333 16.646C21.3333 16.653 21.3306 16.6597 21.3306 16.6667H20.6666V10H21.3333V16.646ZM19.6667 6.66667H21C21.1841 6.66667 21.3333 6.81592 21.3333 7.00001V7.66669H19.3334V7.00001C19.3333 6.81592 19.4826 6.66667 19.6667 6.66667ZM17.6667 8.66666H18.6667V16.646C18.6668 16.936 18.7425 17.2209 18.8863 17.4727L19.7547 18.9923C19.9375 19.3119 20.3448 19.4228 20.6644 19.24C20.7675 19.181 20.853 19.0955 20.912 18.9923L21.7803 17.473C21.9242 17.2211 21.9998 16.9361 22 16.646V8.66666H23.6666C23.8508 8.66666 24 8.81591 24 9V21C24 21.1841 23.8508 21.3333 23.6666 21.3333H17.6667C17.174 21.3335 16.6989 21.5165 16.3333 21.8466V10C16.3333 9.2636 16.9303 8.66666 17.6667 8.66666ZM24 21.9386V22.6666C24 22.8508 23.8508 23 23.6666 23H16.3807C16.5322 22.4131 17.0605 22.0023 17.6667 22H23.6666C23.7805 21.9989 23.8932 21.9782 24 21.9386ZM7.99998 9C7.99998 8.81591 8.14923 8.66666 8.33332 8.66666H14.3333C15.0697 8.66666 15.6667 9.2636 15.6667 10V21.8466C15.3011 21.5165 14.826 21.3335 14.3333 21.3333H8.33332C8.14923 21.3333 7.99998 21.1841 7.99998 21V9ZM25.3334 24C25.3334 24.184 25.1842 24.3334 25 24.3334H17.6667C17.4826 24.3334 17.3333 24.4826 17.3333 24.6666V25C17.3333 25.1842 17.1841 25.3334 17 25.3334H15C14.8159 25.3334 14.6667 25.1842 14.6667 25V24.6666C14.6667 24.4826 14.5174 24.3334 14.3333 24.3334H7.00001C6.81592 24.3334 6.66667 24.184 6.66667 24V11C6.66667 10.8159 6.81592 10.6667 7.00001 10.6667H7.33335V22.6666C7.33335 23.2189 7.78108 23.6666 8.33335 23.6666H23.6666C24.2189 23.6666 24.6666 23.2189 24.6666 22.6666V10.6667H25C25.1842 10.6667 25.3334 10.8159 25.3334 11V24Z" fill="#1F7BF4"/>
<path d="M11.6667 14.6667C11.2985 14.6667 11 14.3682 11 14C11 13.8159 10.8508 13.6666 10.6667 13.6666C10.4826 13.6666 10.3333 13.8159 10.3333 14C10.3356 14.6061 10.7464 15.1345 11.3333 15.286V15.6667C11.3333 15.8508 11.4826 16 11.6667 16C11.8508 16 12 15.8508 12 15.6667V15.286C12.7117 15.1028 13.1402 14.3774 12.957 13.6656C12.8055 13.077 12.2745 12.6659 11.6667 12.6666C11.2985 12.6666 11 12.3681 11 12C11 11.6318 11.2985 11.3333 11.6667 11.3333C12.0349 11.3333 12.3333 11.6318 12.3333 12C12.3333 12.184 12.4826 12.3333 12.6667 12.3333C12.8508 12.3333 13 12.184 13 12C12.9978 11.3938 12.5869 10.8655 12 10.7139V10.3333C12 10.1492 11.8508 9.99994 11.6667 9.99994C11.4826 9.99994 11.3333 10.1492 11.3333 10.3333V10.7139C10.6216 10.8971 10.1932 11.6226 10.3763 12.3343C10.5278 12.9229 11.0589 13.3341 11.6667 13.3333C12.0349 13.3333 12.3333 13.6318 12.3333 14C12.3333 14.3682 12.0349 14.6667 11.6667 14.6667ZM9.33334 17.6667H14.3333C14.5174 17.6667 14.6667 17.5174 14.6667 17.3333C14.6667 17.1492 14.5174 17 14.3333 17H9.33334C9.14925 17 9 17.1492 9 17.3333C9 17.5174 9.14925 17.6667 9.33334 17.6667ZM9.33334 19.3333H14.3333C14.5174 19.3333 14.6667 19.1841 14.6667 19C14.6667 18.8159 14.5174 18.6666 14.3333 18.6666H9.33334C9.14925 18.6666 9 18.8159 9 19C9 19.1841 9.14925 19.3333 9.33334 19.3333Z" fill="#5B7DDE"/>
</g>
</g>
<defs>
<clipPath id="clip0_478_13996">
<rect width="20" height="20" fill="white" transform="translate(6 6)"/>
</clipPath>
</defs>
</svg>
