<svg width="40" height="40" viewBox="0 0 40 40" fill="none" xmlns="http://www.w3.org/2000/svg">
<path d="M36.6666 21.6667C36.6666 30.8717 29.205 38.3333 20 38.3333C10.7953 38.3333 3.33331 30.8717 3.33331 21.6667C3.33331 12.462 10.7953 5 20 5C29.205 5 36.6666 12.462 36.6666 21.6667Z" fill="#27AE60"/>
<path d="M36.6666 20C36.6666 29.205 29.205 36.6666 20 36.6666C10.7953 36.6666 3.33331 29.205 3.33331 20C3.33331 10.7953 10.7953 3.33331 20 3.33331C29.205 3.33331 36.6666 10.7953 36.6666 20Z" fill="#2ECC71"/>
<path d="M10.0001 23.3333H18.3333V31.6666H21.6666V23.3333H30V20H21.6666V11.6666H18.3333V20H10.0001V23.3333Z" fill="#27AE60"/>
<path d="M10 21.6667H18.3333V30H21.6667V21.6667H30V18.3333H21.6667V10H18.3333V18.3333H10V21.6667Z" fill="#ECF0F1"/>
</svg>
