<svg width="32" height="32" viewBox="0 0 32 32" fill="none" xmlns="http://www.w3.org/2000/svg">
<g clip-path="url(#clip0_478_13872)">
<path d="M32 17.1875L31.0317 17.9375L30.0634 17.1875L26.6875 8.02437L23.3116 17.1875L22.3433 17.9375L21.375 17.1875C21.375 17.0769 21.3946 16.9672 21.4328 16.8634L25.343 6.25H18.1875V23.5625L21.9375 27.3125C23.6634 27.3125 25.0625 28.7116 25.0625 30.4375V31.0625C25.0625 31.5802 24.6427 32 24.125 32H7.875C7.35725 32 6.9375 31.5802 6.9375 31.0625V30.4375C6.9375 28.7116 8.33663 27.3125 10.0625 27.3125L13.8125 23.5625V6.25H6.657L10.5672 16.8634C10.6054 16.9671 10.625 17.0769 10.625 17.1875L9.65669 17.9375L8.68838 17.1875L5.3125 8.02437L1.93663 17.1875L0.968313 17.9375L0 17.1875C0 17.0769 0.0195625 16.9672 0.0578125 16.8634L4.43281 4.98838C4.56862 4.61988 4.91969 4.375 5.3125 4.375H26.6875C27.0802 4.375 27.4314 4.61988 27.5672 4.98838L31.9422 16.8634C31.9804 16.9672 32 17.0769 32 17.1875Z" fill="url(#paint0_linear_478_13872)"/>
<path d="M10.625 17.1875C10.625 20.1168 8.24181 22.5 5.3125 22.5C2.38319 22.5 0 20.1168 0 17.1875H10.625ZM21.375 17.1875C21.375 20.1168 23.7582 22.5 26.6875 22.5C29.6168 22.5 32 20.1168 32 17.1875H21.375ZM21.9375 27.3125H10.0625V26.6875C10.0625 24.9616 11.4616 23.5625 13.1875 23.5625H18.8125C20.5384 23.5625 21.9375 24.9616 21.9375 26.6875V27.3125ZM20.9344 1.00157C19.599 -0.333805 17.4262 -0.333805 16.0908 1.00151L16 1.09238L15.9091 1.00157C14.5738 -0.333805 12.401 -0.333805 11.0656 1.00157C9.73025 2.33694 9.73025 4.5097 11.0656 5.84507L13.8125 8.59194H18.1875L20.9344 5.84507C22.2698 4.5097 22.2698 2.33694 20.9344 1.00157Z" fill="url(#paint1_linear_478_13872)"/>
</g>
<defs>
<linearGradient id="paint0_linear_478_13872" x1="16" y1="32" x2="16" y2="4.375" gradientUnits="userSpaceOnUse">
<stop stop-color="#FFEDAD"/>
<stop offset="1" stop-color="#FFFFE5"/>
</linearGradient>
<linearGradient id="paint1_linear_478_13872" x1="16" y1="27.3125" x2="16" y2="7.72625e-06" gradientUnits="userSpaceOnUse">
<stop stop-color="#FD5900"/>
<stop offset="1" stop-color="#FFDE00"/>
</linearGradient>
<clipPath id="clip0_478_13872">
<rect width="32" height="32" fill="white"/>
</clipPath>
</defs>
</svg>
