<svg width="32" height="32" viewBox="0 0 32 32" fill="none" xmlns="http://www.w3.org/2000/svg">
<g clip-path="url(#clip0_478_13848)">
<path d="M16 32C24.8366 32 32 24.8366 32 16C32 7.16344 24.8366 0 16 0C7.16344 0 0 7.16344 0 16C0 24.8366 7.16344 32 16 32Z" fill="#C2CAFF"/>
<path d="M16.5086 15.9333L7.26638 6.69107L6.15863 7.79882L8.87276 10.5129L7.44557 11.9401L7.26638 11.7609L6.15863 12.8687L9.28713 15.9972L7.07294 18.2114L7.94576 19.0842L7.53994 19.49L7.26638 19.2164L6.15863 20.3242L8.88501 23.0506L7.45788 24.4777L7.26638 24.2862L6.15863 25.3939L12.3447 31.58C13.5188 31.8544 14.7424 32 16 32C24.8366 32 32 24.8366 32 16C32 15.5047 31.9763 15.015 31.9323 14.5311L24.9214 7.52038L16.5086 15.9333Z" fill="#7380D2"/>
<path d="M9.28994 12.8686C7.56057 12.8686 6.15863 14.2706 6.15863 15.9999C6.15863 17.7293 7.56057 19.1312 9.28994 19.1312L16 19.4892L17.1053 16.0698L16 12.3686L9.28994 12.8686Z" fill="#8697FF"/>
<path d="M25.8414 17.9384H24.6485L24.3337 16L24.6485 14.0616H25.8414V12.8686L16 12.3686V19.4892L25.8414 19.1314V17.9384Z" fill="#8697FF"/>
<path d="M9.29 14.0616C8.21944 14.0616 7.35156 14.9294 7.35156 16C7.35156 17.0706 8.21944 17.9384 9.29 17.9384H16L16.7601 16L16 14.0616H9.29Z" fill="white"/>
<path d="M16 14.0616H24.6485V17.9384H16V14.0616Z" fill="#E9EDF5"/>
<path d="M6.15863 19.1314V20.3243H7.35151L7.66626 22.2627L7.35151 24.2011H6.15863V25.3941H16L17.1053 22.2627L16 19.1314H6.15863Z" fill="#8697FF"/>
<path d="M25.8414 22.2627C25.8414 20.5333 24.4394 19.1313 22.71 19.1313H16V25.394H22.71C24.4394 25.3941 25.8414 23.9921 25.8414 22.2627Z" fill="#8697FF"/>
<path d="M7.3515 20.3242V24.2011H16L16.7601 22.2627L16 20.3242H7.3515Z" fill="white"/>
<path d="M24.6485 22.2627C24.6485 21.1921 23.7806 20.3242 22.7101 20.3242H16V24.2011H22.71C23.7806 24.2011 24.6485 23.3333 24.6485 22.2627Z" fill="#E9EDF5"/>
<path d="M6.15863 6.60593V7.79886H7.35151L7.66626 9.7373L7.35151 11.6757H6.15863V12.8686H16L17.1053 9.7373L16 6.60593H6.15863Z" fill="#8697FF"/>
<path d="M25.8414 9.7373C25.8414 8.00786 24.4394 6.60593 22.71 6.60593H16V12.8686H22.71C24.4394 12.8686 25.8414 11.4667 25.8414 9.7373Z" fill="#8697FF"/>
<path d="M7.3515 7.79886V11.6757H16L16.7601 9.7373L16 7.79886H7.3515Z" fill="white"/>
<path d="M24.6485 9.7373C24.6485 8.66673 23.7806 7.79886 22.7101 7.79886H16V11.6757H22.71C23.7806 11.6757 24.6485 10.8079 24.6485 9.7373Z" fill="#E9EDF5"/>
<path d="M21.5742 12.3686L20.3242 11.7722L19.0742 12.3686V8.56982H21.5742V12.3686Z" fill="#333940"/>
<path d="M12.882 18.6961L11.632 18.0996L10.382 18.6961V14.8972H12.882V18.6961Z" fill="#555A65"/>
<path d="M21.5742 24.9588L20.3242 24.3623L19.0742 24.9588V21.1599H21.5742V24.9588Z" fill="#333940"/>
</g>
<defs>
<clipPath id="clip0_478_13848">
<rect width="32" height="32" fill="white"/>
</clipPath>
</defs>
</svg>
