<svg width="32" height="32" viewBox="0 0 32 32" fill="none" xmlns="http://www.w3.org/2000/svg">
<g clip-path="url(#clip0_478_13879)">
<path d="M31.3615 3.73218C31.2303 3.45099 30.9679 3.26343 30.6678 3.20724C30.3866 3.16968 30.0678 3.26343 29.8428 3.46968L26.7678 6.56349L25.4366 5.23218L28.5303 2.15724C28.7366 1.93212 28.8304 1.63218 28.7928 1.33224C28.7366 1.03218 28.549 0.76968 28.2679 0.638493C25.7553 -0.561507 22.7554 -0.0365698 20.7865 1.93212C18.9865 3.73218 18.4053 6.41337 19.2491 8.77593C17.524 10.5009 15.9063 12.1187 14.6687 13.3562L16 15.875L18.6624 17.3312L23.224 12.7509C25.6052 13.5947 28.2678 13.0134 30.0677 11.1946C32.0365 9.24468 32.5615 6.24474 31.3615 3.73218ZM8.85098 19.2874C6.46967 18.4062 3.75092 18.9687 1.93223 20.8062C-0.0365161 22.7561 -0.561579 25.7562 0.638484 28.2686C0.769734 28.5499 1.03217 28.7374 1.33223 28.7937C1.61342 28.8312 1.93223 28.7374 2.15723 28.5312L5.23223 25.4375L6.56342 26.7687L3.46973 29.8437C3.26342 30.0687 3.16967 30.3686 3.20723 30.6687C3.26342 30.9686 3.45098 31.2312 3.73217 31.3624C4.63223 31.7936 5.60717 32 6.56342 32C8.26973 32 9.93842 31.3437 11.2135 30.0687C13.0134 28.2686 13.5947 25.5874 12.7509 23.2249L17.3312 18.6437L15.8125 16.1875L13.3563 14.6687C11.0125 17.0124 9.56348 18.5 8.85098 19.2874Z" fill="url(#paint0_linear_478_13879)"/>
<path d="M30.9014 25.6004L24.2104 18.9068C22.9793 17.6733 21.1027 17.4945 19.6672 18.336L9.11494 7.80394L8.494 3.45738C8.45006 3.15344 8.25962 2.88881 7.98494 2.7515L2.68219 0.0991885C2.31962 -0.081124 1.88569 -0.0115615 1.60006 0.275001L0.274373 1.60069C-0.0112518 1.88631 -0.0808768 2.32213 0.0985608 2.68281L2.74994 7.98644C2.88725 8.26113 3.15094 8.4515 3.45675 8.4955L7.80231 9.11625L18.3426 19.6551C17.4929 21.0929 17.6721 22.9758 18.9059 24.2095L25.5986 30.9032C26.3292 31.6347 27.2905 32 28.25 32C29.2095 32 30.1707 31.6347 30.9014 30.9032C31.61 30.1955 32 29.2534 32 28.2518C32 27.2502 31.61 26.3082 30.9014 25.6004Z" fill="url(#paint1_linear_478_13879)"/>
</g>
<defs>
<linearGradient id="paint0_linear_478_13879" x1="16" y1="32" x2="16" y2="-7.62939e-06" gradientUnits="userSpaceOnUse">
<stop stop-color="#FD3A84"/>
<stop offset="1" stop-color="#FFA68D"/>
</linearGradient>
<linearGradient id="paint1_linear_478_13879" x1="16" y1="32" x2="16" y2="0" gradientUnits="userSpaceOnUse">
<stop stop-color="#FFC2CC"/>
<stop offset="1" stop-color="#FFF2F4"/>
</linearGradient>
<clipPath id="clip0_478_13879">
<rect width="32" height="32" fill="white"/>
</clipPath>
</defs>
</svg>
