<svg width="25" height="25" viewBox="0 0 25 25" fill="none" xmlns="http://www.w3.org/2000/svg">
<g clip-path="url(#clip0_478_13910)">
<path d="M12.1609 24.5C18.7883 24.5 24.1609 19.1274 24.1609 12.5C24.1609 5.87258 18.7883 0.5 12.1609 0.5C5.53347 0.5 0.160889 5.87258 0.160889 12.5C0.160889 19.1274 5.53347 24.5 12.1609 24.5Z" fill="#F0F0F0"/>
<path d="M11.6392 12.5H24.1609C24.1609 11.4169 24.0165 10.3677 23.7475 9.36957H11.6392V12.5Z" fill="#D80027"/>
<path d="M11.6392 6.23916H22.3996C21.665 5.04047 20.7258 3.98095 19.6307 3.1087H11.6392V6.23916Z" fill="#D80027"/>
<path d="M12.1609 24.5C14.9851 24.5 17.5809 23.5239 19.6307 21.8914H4.6911C6.74094 23.5239 9.33674 24.5 12.1609 24.5Z" fill="#D80027"/>
<path d="M1.92217 18.7609H22.3996C22.9893 17.7986 23.4467 16.7467 23.7475 15.6304H0.57428C0.875077 16.7467 1.33244 17.7986 1.92217 18.7609Z" fill="#D80027"/>
<path d="M5.71951 2.37397H6.81306L5.79587 3.11295L6.18442 4.30869L5.16728 3.5697L4.15014 4.30869L4.48576 3.2757C3.59017 4.02172 2.8052 4.89575 2.15833 5.86963H2.50872L1.86123 6.34002C1.76036 6.5083 1.66361 6.67925 1.57089 6.85273L1.88008 7.80434L1.30323 7.38523C1.15984 7.68903 1.02869 7.99967 0.910795 8.31678L1.25144 9.36528H2.50872L1.49153 10.1043L1.88008 11.3L0.862936 10.561L0.253654 11.0037C0.19267 11.4939 0.160889 11.9932 0.160889 12.5H12.1609C12.1609 5.87262 12.1609 5.09131 12.1609 0.5C9.79033 0.5 7.5805 1.18766 5.71951 2.37397ZM6.18442 11.3L5.16728 10.561L4.15014 11.3L4.53869 10.1043L3.5215 9.36528H4.77878L5.16728 8.16955L5.55578 9.36528H6.81306L5.79587 10.1043L6.18442 11.3ZM5.79587 6.60861L6.18442 7.80434L5.16728 7.06536L4.15014 7.80434L4.53869 6.60861L3.5215 5.86963H4.77878L5.16728 4.67389L5.55578 5.86963H6.81306L5.79587 6.60861ZM10.4888 11.3L9.47162 10.561L8.45448 11.3L8.84303 10.1043L7.82584 9.36528H9.08312L9.47162 8.16955L9.86012 9.36528H11.1174L10.1002 10.1043L10.4888 11.3ZM10.1002 6.60861L10.4888 7.80434L9.47162 7.06536L8.45448 7.80434L8.84303 6.60861L7.82584 5.86963H9.08312L9.47162 4.67389L9.86012 5.86963H11.1174L10.1002 6.60861ZM10.1002 3.11295L10.4888 4.30869L9.47162 3.5697L8.45448 4.30869L8.84303 3.11295L7.82584 2.37397H9.08312L9.47162 1.17823L9.86012 2.37397H11.1174L10.1002 3.11295Z" fill="#0052B4"/>
</g>
<defs>
<clipPath id="clip0_478_13910">
<rect width="24" height="24" fill="white" transform="translate(0.160889 0.5)"/>
</clipPath>
</defs>
</svg>
