<svg width="50" height="50" viewBox="0 0 50 50" fill="none" xmlns="http://www.w3.org/2000/svg">
<path fill-rule="evenodd" clip-rule="evenodd" d="M25 50C38.8071 50 50 38.8071 50 25C50 11.1929 38.8071 0 25 0C11.1929 0 0 11.1929 0 25C0 38.8071 11.1929 50 25 50Z" fill="#BABABA"/>
<mask id="mask0_478_13896" style="mask-type:luminance" maskUnits="userSpaceOnUse" x="0" y="0" width="50" height="50">
<path fill-rule="evenodd" clip-rule="evenodd" d="M25 50C38.8071 50 50 38.8071 50 25C50 11.1929 38.8071 0 25 0C11.1929 0 0 11.1929 0 25C0 38.8071 11.1929 50 25 50Z" fill="white"/>
</mask>
<g mask="url(#mask0_478_13896)">
</g>
<path d="M34 35.6256C31.3416 37.2085 28.5398 38 25.5947 38C21.9458 38 19.1571 36.4962 17.2284 33.4886C15.7428 31.1669 15 28.3572 15 25.0594C15 21.4713 16.0295 18.3846 18.0885 15.7991C20.0953 13.2664 22.6495 12 25.751 12C28.3313 12 30.7421 12.9102 32.9835 14.7306L31.537 16.9467C29.7647 15.7595 27.9403 15.1659 26.0638 15.1659C23.9005 15.1659 22.1413 16.1157 20.786 18.0152C19.4829 19.8356 18.8313 22.2364 18.8313 25.2177C18.8313 28.4099 19.5741 30.8635 21.0597 32.5784C22.3368 34.0822 24.0569 34.8341 26.2202 34.8341C27.6797 34.8341 29.1001 34.5571 30.4815 34.003V27.1568H26.0638V23.9513H34V35.6256Z" fill="black"/>
</svg>
