<svg width="32" height="32" viewBox="0 0 32 32" fill="none" xmlns="http://www.w3.org/2000/svg">
<path d="M16.6666 9.46665L7.46664 17.0666V24.6666C7.46664 24.9333 7.59997 25.2 7.7333 25.3333C7.99997 25.6 8.13331 25.6 8.39997 25.6H14.6666V19.4666H18.6666V25.6H24.8C25.0666 25.6 25.3333 25.4666 25.4666 25.3333C25.7333 25.0666 25.7333 24.9333 25.7333 24.6666V17.0666V16.9333L16.6666 9.46665ZM29.3333 15.3333L25.8666 12.4V5.86665C25.8666 5.73331 25.8666 5.59998 25.7333 5.46665C25.6 5.33331 25.4666 5.33331 25.3333 5.33331H22.2666C22.1333 5.33331 22 5.33331 21.8666 5.46665C21.7333 5.59998 21.7333 5.73331 21.7333 5.86665V8.93331L17.8666 5.73331C17.6 5.46665 17.2 5.33331 16.6666 5.33331C16.1333 5.33331 15.7333 5.46665 15.4666 5.73331L3.99997 15.3333C3.86664 15.4666 3.86664 15.4666 3.86664 15.7333C3.86664 15.8666 3.86664 16 3.99997 16.1333L4.9333 17.3333C4.9333 17.3333 5.06664 17.3333 5.19997 17.4666C5.3333 17.4666 5.46664 17.4666 5.59997 17.3333L16.6666 8.13331L27.7333 17.3333C27.8666 17.4666 27.8666 17.4666 28.1333 17.4666C28.2666 17.4666 28.4 17.3333 28.5333 17.3333L29.4666 16.1333C29.6 16 29.6 15.8666 29.6 15.7333C29.4666 15.6 29.4666 15.4666 29.3333 15.3333Z" fill="url(#paint0_linear_478_13824)"/>
<defs>
<linearGradient id="paint0_linear_478_13824" x1="3.79477" y1="15.6073" x2="29.545" y2="15.6073" gradientUnits="userSpaceOnUse">
<stop stop-color="#1245C6"/>
<stop offset="1" stop-color="#9909B7"/>
</linearGradient>
</defs>
</svg>
