<svg width="32" height="32" viewBox="0 0 32 32" fill="none" xmlns="http://www.w3.org/2000/svg">
<g clip-path="url(#clip0_478_13838)">
<path d="M28.446 0.0364152C28.044 -0.0788346 27.6141 0.0860401 27.3925 0.440727C27.0516 0.986226 26.4871 1.2991 25.8438 1.2991C25.2005 1.2991 24.636 0.986226 24.295 0.440727C24.1237 0.166602 23.8233 0.00010276 23.5 0.00010276C23.1768 0.00010276 22.8763 0.166602 22.705 0.440727C22.3641 0.986226 21.7996 1.2991 21.1563 1.2991C20.513 1.2991 19.9485 0.986226 19.6075 0.440727C19.4362 0.166602 19.1358 0.00010276 18.8125 0.00010276C18.4893 0.00010276 18.1888 0.166602 18.0175 0.440727C17.6766 0.986226 17.1121 1.2991 16.4688 1.2991C15.8255 1.2991 15.261 0.986226 14.92 0.440727C14.7487 0.166602 14.4483 0.00010276 14.125 0.00010276C13.8018 0.00010276 13.5014 0.166602 13.33 0.440727C12.9891 0.986226 12.4246 1.2991 11.7813 1.2991C11.138 1.2991 10.5735 0.986226 10.2326 0.440727C10.0109 0.0860401 9.58112 -0.0788971 9.17912 0.0364152C8.77712 0.151727 8.50006 0.519352 8.50006 0.937601V24.5001L5.68756 32H24.4375C27.0222 32 29.125 29.8972 29.125 27.3125V0.937601C29.125 0.519352 28.848 0.151665 28.446 0.0364152Z" fill="url(#paint0_linear_478_13838)"/>
<path d="M13.1876 22.6251H24.4376C24.9553 22.6251 25.3751 22.2053 25.3751 21.6876C25.3751 21.1698 24.9553 20.7501 24.4376 20.7501H13.1876C12.6698 20.7501 12.2501 21.1698 12.2501 21.6876C12.2501 22.2053 12.6698 22.6251 13.1876 22.6251ZM18.8126 15.0626C18.2956 15.0626 17.8751 14.642 17.8751 14.1251C17.8751 13.6073 17.4553 13.1876 16.9376 13.1876C16.4198 13.1876 16.0001 13.6073 16.0001 14.1251C16.0001 15.3472 16.7839 16.3893 17.8751 16.7763V17.9376C17.8751 18.4553 18.2948 18.8751 18.8126 18.8751C19.3303 18.8751 19.7501 18.4553 19.7501 17.9376V16.7763C20.8412 16.3893 21.6251 15.3472 21.6251 14.1251C21.6251 12.5742 20.3634 11.3126 18.8126 11.3126C18.2956 11.3126 17.8751 10.892 17.8751 10.3751C17.8751 9.85812 18.2956 9.43756 18.8126 9.43756C19.3295 9.43756 19.7501 9.85812 19.7501 10.3751C19.7501 10.8928 20.1698 11.3126 20.6876 11.3126C21.2053 11.3126 21.6251 10.8928 21.6251 10.3751C21.6251 9.15287 20.8412 8.11081 19.7501 7.72381V6.62506C19.7501 6.10731 19.3303 5.68756 18.8126 5.68756C18.2948 5.68756 17.8751 6.10731 17.8751 6.62506V7.72381C16.7839 8.11081 16.0001 9.15287 16.0001 10.3751C16.0001 11.9259 17.2617 13.1876 18.8126 13.1876C19.3295 13.1876 19.7501 13.6081 19.7501 14.1251C19.7501 14.642 19.3295 15.0626 18.8126 15.0626ZM24.4376 24.5001H13.1876C12.6698 24.5001 12.2501 24.9198 12.2501 25.4376C12.2501 25.9553 12.6698 26.3751 13.1876 26.3751H24.4376C24.9553 26.3751 25.3751 25.9553 25.3751 25.4376C25.3751 24.9198 24.9553 24.5001 24.4376 24.5001ZM2.87506 25.4376V29.1876C2.87506 30.7409 4.13425 32.0001 5.68756 32.0001C7.24087 32.0001 8.50006 30.7409 8.50006 29.1876V24.5001H3.81256C3.29475 24.5001 2.87506 24.9198 2.87506 25.4376Z" fill="url(#paint1_linear_478_13838)"/>
</g>
<defs>
<linearGradient id="paint0_linear_478_13838" x1="17.4063" y1="32" x2="17.4063" y2="-2.28882e-05" gradientUnits="userSpaceOnUse">
<stop stop-color="#00B59C"/>
<stop offset="1" stop-color="#9CFFAC"/>
</linearGradient>
<linearGradient id="paint1_linear_478_13838" x1="14.1251" y1="32.0001" x2="14.1251" y2="5.68756" gradientUnits="userSpaceOnUse">
<stop stop-color="#C3FFE8"/>
<stop offset="0.9973" stop-color="#F0FFF4"/>
</linearGradient>
<clipPath id="clip0_478_13838">
<rect width="32" height="32" fill="white"/>
</clipPath>
</defs>
</svg>
