<svg width="89" height="53" viewBox="0 0 89 53" fill="none" xmlns="http://www.w3.org/2000/svg">
<path d="M62.9507 0.00741895C55.9522 -0.158078 49.1723 2.45095 44.0901 7.26529C41.575 9.708 38.2152 11.0873 34.7092 11.1164H26.1676C25.4343 11.1164 24.7311 11.4077 24.2126 11.9262C23.694 12.4447 23.4027 13.148 23.4027 13.8813C23.4027 14.6146 23.694 15.3179 24.2126 15.8364C24.7311 16.3549 25.4343 16.6462 26.1676 16.6462H33.2774C33.7799 16.6486 34.2754 16.7638 34.7274 16.9832C35.1794 17.2026 35.5765 17.5207 35.8892 17.9139C36.2019 18.3072 36.4224 18.7657 36.5343 19.2555C36.6463 19.7454 36.6469 20.2541 36.536 20.7442C36.4867 20.7936 36.4867 20.8429 36.4867 20.9417C36.3189 21.6951 35.9002 22.3692 35.2992 22.8536C34.6982 23.338 33.9505 23.6039 33.1786 23.6078H15.1574C14.4486 23.6013 13.7618 23.8534 13.2255 24.3169C12.6893 24.7805 12.3405 25.4236 12.2444 26.1259C12.21 26.5092 12.2561 26.8954 12.3795 27.2599C12.503 27.6244 12.7012 27.9591 12.9615 28.2426C13.2217 28.5261 13.5383 28.7521 13.8909 28.9062C14.2435 29.0604 14.6245 29.1392 15.0093 29.1376H33.1786C33.9598 29.1347 34.7176 29.4043 35.3214 29.9C35.9252 30.3957 36.3373 31.0864 36.4867 31.8532C36.4793 31.9228 36.4968 31.9927 36.536 32.0507C36.6375 32.5399 36.6302 33.0454 36.5145 33.5314C36.3989 34.0174 36.1777 34.4721 35.8668 34.8631C35.5559 35.2541 35.1627 35.572 34.7152 35.7942C34.2677 36.0163 33.7769 36.1373 33.2774 36.1487H22.3659C21.6673 36.1311 20.9871 36.3742 20.4578 36.8305C19.9285 37.2868 19.5879 37.9237 19.5023 38.6173C19.4605 39.0045 19.5011 39.3961 19.6212 39.7666C19.7413 40.137 19.9384 40.4779 20.1994 40.7669C20.4604 41.0559 20.7796 41.2865 21.1359 41.4436C21.4922 41.6007 21.8777 41.6807 22.2672 41.6785H34.7092C38.2282 41.7151 41.6008 43.0924 44.1395 45.5296C47.2466 48.4646 51.0207 50.6002 55.1367 51.7525C59.2526 52.9047 63.5869 53.039 67.7663 52.1438C71.9457 51.2487 75.8448 49.3508 79.1277 46.6138C82.4105 43.8768 84.9788 40.3826 86.6111 36.4324C88.2435 32.4822 88.891 28.1944 88.4979 23.9384C88.1048 19.6823 86.6828 15.5856 84.3545 12.0012C82.0263 8.41688 78.8615 5.4523 75.1328 3.3629C71.4041 1.2735 67.2234 0.121939 62.9507 0.00741895Z" fill="#1450A3"/>
<path d="M80.8732 10.8201C71.8873 -0.831957 55.051 -0.436973 45.7195 9.19081C44.5267 10.3801 43.1092 11.32 41.5495 11.9558C39.9897 12.5916 38.319 12.9104 36.6348 12.8938H23.6002C23.4597 13.2035 23.3921 13.5413 23.4027 13.8813C23.4027 14.6146 23.694 15.3178 24.2126 15.8364C24.7311 16.3549 25.4343 16.6462 26.1676 16.6462H33.2774C33.7747 16.6501 34.2649 16.7645 34.7126 16.9811C35.1602 17.1976 35.5542 17.5109 35.866 17.8983C36.1778 18.2858 36.3997 18.7376 36.5156 19.2212C36.6314 19.7048 36.6384 20.2081 36.536 20.6948C36.4961 20.7706 36.479 20.8563 36.4867 20.9417C36.3273 21.6994 35.9109 22.3787 35.308 22.8645C34.7052 23.3504 33.9529 23.613 33.1786 23.6078H16.3424C13.6762 23.6078 12.3925 24.694 12.2444 26.1258C12.21 26.5091 12.2561 26.8954 12.3795 27.2599C12.503 27.6244 12.7012 27.9591 12.9615 28.2426C13.2217 28.526 13.5383 28.7521 13.8909 28.9062C14.2435 29.0603 14.6245 29.1392 15.0093 29.1376H33.1786C33.9444 29.1437 34.6851 29.4115 35.2778 29.8964C35.8705 30.3814 36.2796 31.0544 36.4373 31.8038C36.4867 31.9025 36.4867 32.0013 36.536 32.0506C36.6469 32.5407 36.6463 33.0494 36.5344 33.5393C36.4224 34.0291 36.2019 34.4876 35.8892 34.8809C35.5765 35.2742 35.1794 35.5922 34.7274 35.8117C34.2754 36.0311 33.7799 36.1462 33.2774 36.1486H23.3534C20.9341 36.1486 19.6504 37.1855 19.5023 38.6173C19.4605 39.0045 19.5011 39.3961 19.6212 39.7665C19.7413 40.137 19.9384 40.4778 20.1994 40.7668C20.4604 41.0558 20.7796 41.2864 21.1359 41.4435C21.4922 41.6006 21.8777 41.6807 22.2672 41.6784H34.7092C38.2282 41.715 41.6008 43.0923 44.1395 45.5295C47.2389 48.476 51.0084 50.6243 55.1231 51.7892C59.2377 52.9541 63.574 53.1007 67.7579 52.2163C71.9418 51.3319 75.8478 49.443 79.1391 46.7126C82.4303 43.9822 85.008 40.4922 86.6499 36.5436C88.4273 27.5083 87.0943 18.1768 80.8732 10.8201Z" fill="#1450A3"/>
<path d="M88.6251 24.546C88.1473 18.1509 85.3677 12.1457 80.8014 7.64291C76.2351 3.14016 70.1916 0.445034 63.7904 0.0568293C60.1871 -0.165536 56.5768 0.360091 53.1865 1.60065C49.7962 2.84121 46.6992 4.76987 44.0904 7.26533C41.5753 9.70804 38.2155 11.0873 34.7095 11.1164H26.1679C25.6091 11.1125 25.0627 11.2811 24.6032 11.5992C24.1437 11.9173 23.7936 12.3694 23.6005 12.8939H34.512C39.0426 12.9003 43.4111 11.2092 46.7566 8.15405C56.2363 -0.436903 72.1838 -0.387529 80.8735 10.8202C87.0946 18.1768 88.4276 27.5084 86.6502 36.5437C88.2136 32.747 88.8891 28.6434 88.6251 24.546Z" fill="#337CCF"/>
<path d="M44.1893 37.3336C43.9879 37.327 43.7916 37.2691 43.6188 37.1654C43.446 37.0617 43.3025 36.9157 43.2019 36.7411C41.5004 33.5489 40.6022 29.9901 40.5851 26.3727C40.5849 26.2258 40.6146 26.0804 40.6722 25.9453C40.7299 25.8102 40.8143 25.6882 40.9205 25.5867C41.0266 25.4851 41.1523 25.4062 41.2898 25.3546C41.4274 25.303 41.5739 25.2798 41.7207 25.2865C42.0088 25.2865 42.285 25.401 42.4887 25.6047C42.6924 25.8084 42.8069 26.0847 42.8069 26.3727C42.8128 29.6157 43.6274 32.806 45.1768 35.6549C45.2706 35.8271 45.3182 36.0207 45.315 36.2168C45.3117 36.4129 45.2578 36.6048 45.1583 36.7738C45.0589 36.9429 44.9174 37.0833 44.7476 37.1814C44.5778 37.2795 44.3854 37.3319 44.1893 37.3336Z" fill="white"/>
<path d="M62.2596 47.8748C56.8909 47.8611 51.7184 45.8554 47.7439 42.2463C47.5278 42.0499 47.3986 41.7757 47.3847 41.484C47.3708 41.1923 47.4734 40.9071 47.6698 40.691C47.8662 40.475 48.1404 40.3458 48.4321 40.3319C48.7238 40.318 49.009 40.4206 49.2251 40.617C51.5707 42.7257 54.3939 44.2325 57.4513 45.0074C60.5088 45.7823 63.7088 45.8022 66.7757 45.0653C69.8425 44.3283 72.6842 42.8567 75.0558 40.7772C77.4274 38.6977 79.2577 36.0728 80.3891 33.1285C81.5205 30.1843 81.9191 27.0091 81.5504 23.8766C81.1816 20.744 80.0567 17.7481 78.2726 15.1471C76.4885 12.546 74.0987 10.4178 71.3091 8.9458C68.5194 7.47381 65.4137 6.70223 62.2596 6.69754C61.9715 6.69754 61.6952 6.5831 61.4915 6.37939C61.2878 6.17569 61.1734 5.8994 61.1734 5.61132C61.1667 5.46458 61.1899 5.31801 61.2415 5.18047C61.2931 5.04293 61.372 4.91729 61.4735 4.81114C61.5751 4.70498 61.6971 4.62053 61.8322 4.56288C61.9673 4.50523 62.1127 4.47559 62.2596 4.47574C65.1963 4.33562 68.1309 4.79305 70.8856 5.82033C73.6404 6.84761 76.1579 8.42336 78.2858 10.4521C80.4137 12.4809 82.1076 14.9205 83.265 17.6231C84.4224 20.3258 85.0192 23.2352 85.0192 26.1753C85.0192 29.1153 84.4224 32.0248 83.265 34.7274C82.1076 37.4301 80.4137 39.8697 78.2858 41.8984C76.1579 43.9272 73.6404 45.503 70.8856 46.5303C68.1309 47.5575 65.1963 48.015 62.2596 47.8748Z" fill="white"/>
<path d="M18.0213 11.1163H15.3057C14.7417 11.1162 14.1906 11.2857 13.724 11.6026C13.2574 11.9195 12.8968 12.3694 12.689 12.8938H20.5887C20.3956 12.3693 20.0455 11.9172 19.586 11.5991C19.1265 11.281 18.5801 11.1124 18.0213 11.1163Z" fill="#337CCF"/>
<path d="M12.6889 12.8938C12.5875 13.213 12.5375 13.5463 12.5408 13.8813C12.5408 14.6146 12.8321 15.3178 13.3506 15.8363C13.8691 16.3549 14.5724 16.6462 15.3057 16.6462H18.0212C18.7545 16.6462 19.4578 16.3549 19.9763 15.8363C20.4948 15.3178 20.7861 14.6146 20.7861 13.8813C20.7968 13.5413 20.7292 13.2035 20.5886 12.8938H12.6889Z" fill="#1450A3"/>
<path d="M2.81428 29.1376H5.52981C6.2631 29.1376 6.96637 28.8463 7.48489 28.3278C8.00341 27.8092 8.29471 27.106 8.29471 26.3727C8.29471 25.6394 8.00341 24.9361 7.48489 24.4176C6.96637 23.8991 6.2631 23.6078 5.52981 23.6078H2.81428C2.07636 23.6077 1.36792 23.8974 0.841537 24.4145C0.315155 24.9317 0.0129459 25.6349 0 26.3727C0.0129459 27.1105 0.315155 27.8137 0.841537 28.3308C1.36792 28.848 2.07636 29.1377 2.81428 29.1376Z" fill="#1450A3"/>
<path d="M14.7131 36.1487H11.9976C10.4706 36.1487 9.23267 37.3866 9.23267 38.9136C9.23267 40.4406 10.4706 41.6785 11.9976 41.6785H14.7131C16.2401 41.6785 17.478 40.4406 17.478 38.9136C17.478 37.3866 16.2401 36.1487 14.7131 36.1487Z" fill="#1450A3"/>
<path d="M58.5803 26.1346C58.3181 25.5118 58.0691 24.9024 57.8069 24.3061C57.5447 23.7099 57.2957 23.1004 57.0466 22.4909C56.7975 21.8814 56.5223 21.2984 56.2732 20.6889L55.5916 18.94C55.3425 18.3305 55.0803 17.7342 54.8313 17.1248C54.5553 16.5438 54.3145 15.9465 54.1103 15.336V15.2698H62.5259H62.7881L64.466 19.2447C64.6888 19.2447 64.7675 19.0327 64.8855 18.9002L68.3985 14.9253L70.1289 12.9246C70.1926 12.8429 70.2745 12.7776 70.3678 12.7338C70.4612 12.6901 70.5635 12.6692 70.6663 12.6728H73.7075C73.7729 12.6668 73.8387 12.6668 73.9041 12.6728C73.9142 12.7164 73.9142 12.7618 73.9041 12.8053L47.4119 43.2798H43.7939C43.7939 43.081 43.8988 43.0015 43.9906 42.8955L48.9062 37.2379L58.2133 26.5851L58.5803 26.1346Z" fill="#337CCF"/>
<path fill-rule="evenodd" clip-rule="evenodd" d="M77.3286 10.8697L76.874 12.9152L79.2553 12.5751C79.082 12.7681 78.9054 12.9604 78.7247 13.1526L77.4283 14.653C77.0134 15.1358 76.5856 15.6185 76.1318 16.1143L74.8354 17.5625L73.5389 19.0237L72.2425 20.5241C71.8146 21.0069 71.3868 21.4896 70.946 21.9854C70.8506 22.0927 70.7557 22.1976 70.662 22.3013C70.323 22.6763 69.9988 23.0349 69.7144 23.4336C69.7466 23.6896 69.8257 23.9373 69.9477 24.1642C71.3047 27.1911 72.6141 30.1789 73.876 33.1275C73.93 33.199 73.9674 33.2819 73.9854 33.37C74.0033 33.4581 74.0014 33.5491 73.9797 33.6363H73.6686H65.8898C65.796 33.6503 65.7004 33.6304 65.6197 33.5803C65.539 33.5302 65.4786 33.453 65.449 33.3623L65.449 33.3622C65.2156 32.8403 64.9823 32.3185 64.7619 31.7967L64.2304 30.5964C64.1848 30.5069 64.1282 30.4236 64.0618 30.3485C63.8582 30.3485 63.7697 30.4466 63.6792 30.5469C63.6603 30.5679 63.6412 30.5891 63.621 30.6094L62.0523 32.4882L55.5701 39.951C55.4825 40.0707 55.3667 40.1667 55.2333 40.2305C55.0998 40.2942 54.9527 40.3237 54.8052 40.3163H52.0696L51.6937 40.2641L53.3661 38.3332L59.615 31.2357L65.7732 24.1642C67.8475 21.7984 69.9132 19.4282 71.9702 17.0536L77.3286 10.8697Z" fill="white"/>
</svg>
