<svg width="249" height="162" viewBox="0 0 249 162" fill="none" xmlns="http://www.w3.org/2000/svg">
<g clip-path="url(#clip0_494_1304)">
<path d="M227.114 161.521L220.003 139.985C220.003 139.985 227.825 147.835 227.825 154.275L226.421 139.381C226.421 139.381 230.432 144.816 230.031 153.068C229.63 161.32 227.114 161.521 227.114 161.521Z" fill="#E6E6E6"/>
<path d="M74.3914 141.912L67.4506 120.894C67.4506 120.894 75.085 128.554 75.085 134.84L73.7147 120.304C73.7147 120.304 77.6298 125.608 77.2383 133.662C76.8468 141.715 74.3914 141.912 74.3914 141.912Z" fill="#E6E6E6"/>
<path d="M182.724 151.611C182.736 165.437 155.408 161.184 121.952 161.213C88.4965 161.242 61.582 165.541 61.5701 151.715C61.5582 137.889 88.876 134.859 122.332 134.83C155.787 134.801 182.712 137.785 182.724 151.611Z" fill="#E6E6E6"/>
<path d="M249 161.205H0V161.837H249V161.205Z" fill="#3F3D56"/>
<path d="M159.277 132.938H154.903L152.821 116.01H159.277V132.938Z" fill="#A0616A"/>
<path d="M151.293 131.685H160.214V137.014H146.468V136.526C146.468 135.242 146.976 134.011 147.881 133.103C148.786 132.195 150.013 131.685 151.293 131.685Z" fill="#2F2E41"/>
<path d="M191.426 157.924H187.052L184.971 140.996H191.426V157.924Z" fill="#A0616A"/>
<path d="M183.442 156.671H192.364V162H178.617V161.512C178.617 160.228 179.125 158.997 180.03 158.089C180.935 157.181 182.163 156.671 183.442 156.671Z" fill="#2F2E41"/>
<path d="M211.601 107.632C211.903 107.264 212.122 106.834 212.241 106.372C212.36 105.91 212.376 105.428 212.289 104.959C212.202 104.49 212.014 104.046 211.737 103.658C211.46 103.27 211.102 102.948 210.688 102.714L200.53 61.1888L194.034 63.993L206.117 104.144C205.772 104.868 205.702 105.695 205.923 106.467C206.144 107.238 206.639 107.902 207.315 108.332C207.991 108.762 208.801 108.928 209.591 108.799C210.381 108.67 211.096 108.255 211.601 107.632Z" fill="#A0616A"/>
<path d="M203.678 23.7093C203.316 23.329 202.874 23.0331 202.386 22.8424C201.897 22.6517 201.372 22.5709 200.849 22.6057C200.325 22.6404 199.816 22.7899 199.357 23.0435C198.897 23.2972 198.498 23.6489 198.189 24.0738L182.466 25.8852L184.857 31.9708L199.157 29.2853C199.903 29.7596 200.796 29.9429 201.668 29.8005C202.539 29.658 203.328 29.1997 203.886 28.5124C204.443 27.8251 204.73 26.9565 204.691 26.0713C204.653 25.186 204.293 24.3456 203.678 23.7093Z" fill="#A0616A"/>
<path d="M177.767 103.326L184.628 154.997L193.168 153.233C193.168 153.233 191.912 115.602 196.182 111.065C200.452 106.529 190.69 98.5816 190.69 98.5816L177.767 103.326Z" fill="#2F2E41"/>
<path d="M180.604 89.0932L177.452 93.8374C177.452 93.8374 153.182 83.7167 153.182 99.8467C153.182 115.977 151.793 126.923 151.291 127.679C150.789 128.435 157.102 130.397 160.116 129.893C160.116 129.893 163.835 103.889 163.584 102.377C163.584 102.377 187.391 114.09 191.912 113.082C196.433 112.073 197.501 108.505 198.254 106.489C199.008 104.472 197.939 88.4607 197.939 88.4607L182.87 83.8461L180.604 89.0932Z" fill="#2F2E41"/>
<path d="M181.029 60.6092L180.131 59.5274C180.131 59.5274 170.069 36.8097 174.022 30.6796C177.975 24.5494 195.224 23.6479 195.763 24.0085C196.302 24.3691 194.475 29.0509 195.733 31.2144C195.733 31.2144 182.371 34.1214 181.472 34.482C180.574 34.8426 188.396 48.1685 188.396 48.1685L187.497 56.282L181.029 60.6092Z" fill="#CCCCCC"/>
<path d="M198.638 49.4306C198.638 49.4306 189.294 50.5124 188.935 50.5124C188.576 50.5124 188.396 48.1685 188.396 48.1685L180.131 59.5273C180.131 59.5273 176.059 92.4806 177.137 91.9398C178.215 91.3988 198.098 94.5053 198.278 93.0629C198.458 91.6205 198.098 84.4086 198.638 84.048C199.177 83.6874 207.981 61.3303 207.981 61.3303C207.981 61.3303 207.082 56.6426 204.028 55.0199C200.973 53.3972 198.638 49.4306 198.638 49.4306Z" fill="#CCCCCC"/>
<path d="M205.106 58.2653L207.981 61.3303C207.981 61.3303 212.252 96.551 209.916 97.6328C207.581 98.7146 202.982 98.5816 202.982 98.5816L198.458 81.8844L205.106 58.2653Z" fill="#CCCCCC"/>
<path d="M189.659 47.2002C194.227 47.2002 197.929 43.4847 197.929 38.9014C197.929 34.3181 194.227 30.6027 189.659 30.6027C185.092 30.6027 181.389 34.3181 181.389 38.9014C181.389 43.4847 185.092 47.2002 189.659 47.2002Z" fill="#A0616A"/>
<path d="M187.718 40.1963C187.607 38.4744 185.442 38.4154 183.722 38.3991C182.003 38.3828 179.947 38.4444 178.974 37.0215C178.331 36.0813 178.454 34.7759 178.985 33.7677C179.516 32.7596 180.39 31.9843 181.249 31.2383C183.469 29.3126 185.756 27.4021 188.421 26.1695C191.085 24.9369 194.208 24.4388 196.971 25.4283C200.366 26.6438 204.955 32.9006 205.351 36.4954C205.747 40.0902 204.316 43.7548 201.902 46.441C199.489 49.1273 193.965 48.0434 190.489 48.9991C192.602 45.9977 191.209 40.5441 187.824 39.1426L187.718 40.1963Z" fill="#2F2E41"/>
<path d="M114.011 147.542C124.976 147.542 133.865 138.622 133.865 127.62C133.865 116.617 124.976 107.697 114.011 107.697C103.046 107.697 94.1574 116.617 94.1574 127.62C94.1574 138.622 103.046 147.542 114.011 147.542Z" fill="#337CCF"/>
<path d="M100.752 106.282C98.0008 106.282 95.3082 105.482 93.0004 103.978C90.6926 102.475 88.8686 100.332 87.7491 97.81L56.2452 26.6184C55.2016 24.2602 54.6497 21.7127 54.6234 19.1326C54.597 16.5525 55.0968 13.9942 56.092 11.615C57.0872 9.23578 58.5568 7.08596 60.4104 5.29765C62.2641 3.50934 64.4626 2.12032 66.8709 1.21597C69.2792 0.311628 71.8464 -0.0889406 74.4146 0.0388943C76.9828 0.166729 79.4979 0.820265 81.8052 1.95933C84.1124 3.09839 86.1632 4.69893 87.8314 6.66254C89.4995 8.62615 90.7499 10.9114 91.5056 13.3777L114.318 87.8333C114.971 89.9645 115.117 92.2197 114.744 94.4177C114.371 96.6157 113.49 98.6953 112.17 100.489C110.851 102.284 109.131 103.742 107.148 104.748C105.165 105.754 102.974 106.279 100.752 106.282Z" fill="#337CCF"/>
</g>
<defs>
<clipPath id="clip0_494_1304">
<rect width="249" height="162" fill="white"/>
</clipPath>
</defs>
</svg>
