<svg width="23" height="27" viewBox="0 0 23 27" fill="none" xmlns="http://www.w3.org/2000/svg">
<path d="M20.3506 18.3L19.3906 16.86C17.8546 14.556 17.0866 11.772 17.0866 8.988C17.0866 6.012 15.1666 3.516 12.5746 2.748C12.2866 1.98 11.5186 1.5 10.7506 1.5C9.98265 1.5 9.21465 1.98 8.92665 2.748C6.33465 3.516 4.41464 6.012 4.41464 8.988C4.41464 11.772 3.64665 14.556 2.11065 16.86L1.15065 18.3C0.766645 18.972 1.15065 19.74 1.91865 19.74H19.4866C20.2546 19.74 20.7346 18.876 20.3506 18.3Z" stroke="#BABABA" stroke-width="2" stroke-miterlimit="10" stroke-linejoin="round"/>
<path d="M13.6307 22.62C13.6307 24.252 12.3827 25.5 10.7507 25.5C9.11867 25.5 7.87067 24.252 7.87067 22.62" stroke="#BABABA" stroke-width="2" stroke-miterlimit="10" stroke-linejoin="round"/>
<path d="M21.6609 7.5343C21.6609 10.2878 19.4288 12.52 16.6752 12.52C13.9217 12.52 11.6895 10.2878 11.6895 7.5343C11.6895 4.78076 13.9217 2.54858 16.6752 2.54858C19.4288 2.54858 21.6609 4.78076 21.6609 7.5343Z" fill="#1F7BF4" stroke="#F6F5FA"/>
</svg>
