<svg width="32" height="32" viewBox="0 0 32 32" fill="none" xmlns="http://www.w3.org/2000/svg">
<path d="M31.0625 1.9375H8.43753C7.91246 1.9375 7.50003 2.34994 7.50003 2.875V26.3125C7.50003 27.3438 6.65634 28.1875 5.62503 28.1875C5.09996 28.1875 4.68753 28.5999 4.68753 29.125C4.68753 29.3875 3.48753 29.6125 2.30621 29.7624C2.75621 29.9688 3.24371 30.0625 3.75003 30.0625H27.3125C29.9 30.0625 32 27.9625 32 25.375V2.875C32 2.34994 31.5876 1.9375 31.0625 1.9375Z" fill="url(#paint0_linear_478_13885)"/>
<path d="M0.9375 20.6875C0.41975 20.6875 0 21.1073 0 21.625V26.3125C0 27.85 0.95625 29.1999 2.28744 29.7624C2.30619 29.7812 2.30619 29.7624 2.30619 29.7624C2.72913 29.9564 3.18525 30.0508 3.659 30.0615C5.77081 30.1089 7.5 28.2275 7.5 26.1151V20.6875H0.9375ZM11.3125 16.9375H18.8125C19.3307 16.9375 19.75 16.5182 19.75 16V8.5C19.75 7.98181 19.3307 7.5625 18.8125 7.5625H11.3125C10.7943 7.5625 10.375 7.98181 10.375 8.5V16C10.375 16.5182 10.7943 16.9375 11.3125 16.9375ZM22.625 9.4375H28.25C28.7682 9.4375 29.1875 9.01819 29.1875 8.5C29.1875 7.98181 28.7682 7.5625 28.25 7.5625H22.625C22.1068 7.5625 21.6875 7.98181 21.6875 8.5C21.6875 9.01819 22.1068 9.4375 22.625 9.4375ZM28.25 11.3125H22.625C22.1068 11.3125 21.6875 11.7318 21.6875 12.25C21.6875 12.7682 22.1068 13.1875 22.625 13.1875H28.25C28.7682 13.1875 29.1875 12.7682 29.1875 12.25C29.1875 11.7318 28.7682 11.3125 28.25 11.3125ZM28.25 15.0625H22.625C22.1068 15.0625 21.6875 15.4818 21.6875 16C21.6875 16.5182 22.1068 16.9375 22.625 16.9375H28.25C28.7682 16.9375 29.1875 16.5182 29.1875 16C29.1875 15.4818 28.7682 15.0625 28.25 15.0625ZM28.25 18.8125H11.3125C10.7943 18.8125 10.375 19.2318 10.375 19.75C10.375 20.2682 10.7943 20.6875 11.3125 20.6875H28.25C28.7682 20.6875 29.1875 20.2682 29.1875 19.75C29.1875 19.2318 28.7682 18.8125 28.25 18.8125ZM28.25 22.5625H11.3125C10.7943 22.5625 10.375 22.9818 10.375 23.5C10.375 24.0182 10.7943 24.4375 11.3125 24.4375H28.25C28.7682 24.4375 29.1875 24.0182 29.1875 23.5C29.1875 22.9818 28.7682 22.5625 28.25 22.5625Z" fill="url(#paint1_linear_478_13885)"/>
<defs>
<linearGradient id="paint0_linear_478_13885" x1="17.1532" y1="30.0625" x2="17.1532" y2="1.9375" gradientUnits="userSpaceOnUse">
<stop stop-color="#5558FF"/>
<stop offset="1" stop-color="#00C0FF"/>
</linearGradient>
<linearGradient id="paint1_linear_478_13885" x1="14.5938" y1="30.0624" x2="14.5938" y2="7.5625" gradientUnits="userSpaceOnUse">
<stop stop-color="#ADDCFF"/>
<stop offset="0.5028" stop-color="#EAF6FF"/>
<stop offset="1" stop-color="#EAF6FF"/>
</linearGradient>
</defs>
</svg>
