<svg width="32" height="32" viewBox="0 0 32 32" fill="none" xmlns="http://www.w3.org/2000/svg">
<path d="M10.3125 1.9375H2.8125C1.26163 1.9375 0 3.19913 0 4.75V12.25C0 13.8009 1.26163 15.0625 2.8125 15.0625H10.3125C11.8634 15.0625 13.125 13.8009 13.125 12.25V4.75C13.125 3.19913 11.8634 1.9375 10.3125 1.9375ZM10.3125 16.9375H2.8125C1.26163 16.9375 0 18.1991 0 19.75V27.25C0 28.8009 1.26163 30.0625 2.8125 30.0625H10.3125C11.8634 30.0625 13.125 28.8009 13.125 27.25V19.75C13.125 18.1991 11.8634 16.9375 10.3125 16.9375Z" fill="url(#paint0_linear_478_13828)"/>
<path d="M9.43452 6.46112C9.04083 6.12606 8.45033 6.17275 8.11252 6.5655L6.03977 8.99438L5.43096 8.38644C5.06477 8.02025 4.47146 8.02025 4.10527 8.38644C3.73908 8.75262 3.73908 9.34594 4.10527 9.71212L5.43096 11.0378C5.81158 11.4204 6.44714 11.4036 6.80702 10.9838L9.53896 7.78312C9.87489 7.38944 9.82821 6.79712 9.43452 6.46112ZM9.43452 21.4611C9.04083 21.1261 8.45033 21.1709 8.11252 21.5655L6.03977 23.9944L5.43096 23.3864C5.06477 23.0203 4.47146 23.0203 4.10527 23.3864C3.73908 23.7526 3.73908 24.3459 4.10527 24.7121L5.43096 26.0378C5.81158 26.4204 6.44714 26.4036 6.80702 25.9838L9.53896 22.7831C9.87489 22.3894 9.82821 21.7971 9.43452 21.4611ZM31.0625 18.8125H16.0625C15.5443 18.8125 15.125 19.2318 15.125 19.75C15.125 20.2682 15.5443 20.6875 16.0625 20.6875H31.0625C31.5807 20.6875 32 20.2682 32 19.75C32 19.2318 31.5807 18.8125 31.0625 18.8125ZM31.0625 22.5625H16.0625C15.5443 22.5625 15.125 22.9818 15.125 23.5C15.125 24.0182 15.5443 24.4375 16.0625 24.4375H31.0625C31.5807 24.4375 32 24.0182 32 23.5C32 22.9818 31.5807 22.5625 31.0625 22.5625ZM23.5625 26.3125H16.0625C15.5443 26.3125 15.125 26.7318 15.125 27.25C15.125 27.7682 15.5443 28.1875 16.0625 28.1875H23.5625C24.0807 28.1875 24.5 27.7682 24.5 27.25C24.5 26.7318 24.0807 26.3125 23.5625 26.3125ZM31.0625 7.5625H16.0625C15.5443 7.5625 15.125 7.98181 15.125 8.5C15.125 9.01819 15.5443 9.4375 16.0625 9.4375H31.0625C31.5807 9.4375 32 9.01819 32 8.5C32 7.98181 31.5807 7.5625 31.0625 7.5625ZM16.0625 5.6875H31.0625C31.5807 5.6875 32 5.26819 32 4.75C32 4.23181 31.5807 3.8125 31.0625 3.8125H16.0625C15.5443 3.8125 15.125 4.23181 15.125 4.75C15.125 5.26819 15.5443 5.6875 16.0625 5.6875ZM16.0625 13.1875H23.5625C24.0807 13.1875 24.5 12.7682 24.5 12.25C24.5 11.7318 24.0807 11.3125 23.5625 11.3125H16.0625C15.5443 11.3125 15.125 11.7318 15.125 12.25C15.125 12.7682 15.5443 13.1875 16.0625 13.1875Z" fill="url(#paint1_linear_478_13828)"/>
<defs>
<linearGradient id="paint0_linear_478_13828" x1="6.5625" y1="30.0625" x2="6.5625" y2="1.9375" gradientUnits="userSpaceOnUse">
<stop stop-color="#5558FF"/>
<stop offset="1" stop-color="#00C0FF"/>
</linearGradient>
<linearGradient id="paint1_linear_478_13828" x1="17.9153" y1="28.1875" x2="17.9153" y2="3.8125" gradientUnits="userSpaceOnUse">
<stop stop-color="#ADDCFF"/>
<stop offset="0.5028" stop-color="#EAF6FF"/>
<stop offset="1" stop-color="#EAF6FF"/>
</linearGradient>
</defs>
</svg>
